<svg width="69" height="41" viewBox="0 0 69 41" fill="none" xmlns="http://www.w3.org/2000/svg">
<g clip-path="url(#clip0_103_97)">
<path d="M34.5 40.9904C23.1455 40.9904 11.791 40.9885 0.438398 41C0.0819613 41 0 40.9195 0 40.5593C0.0114365 27.1864 0.0114365 13.8116 0 0.438738C0 0.0804673 0.0800552 0 0.438398 0C23.1474 0.00957944 45.8545 0.00957944 68.5635 0C68.9199 0 69.0019 0.0804673 69.0019 0.440654C68.9905 13.8136 68.9905 27.1884 69.0019 40.5613C69.0019 40.9195 68.9218 41.0019 68.5635 41.0019C57.209 40.9904 45.8545 40.9923 34.5019 40.9923L34.5 40.9904ZM34.7059 36.5436C35.6036 36.4977 36.9188 36.467 38.2302 36.3233C42.7991 35.8252 47.0915 34.4419 51.161 32.3268C54.3327 30.6791 57.2433 28.6387 59.9747 26.3396C62.2773 24.4027 64.4197 22.2933 66.4478 20.0689C67.1244 19.3256 67.1073 18.4002 66.463 17.6396C63.276 13.8825 59.7174 10.5393 55.6193 7.79958C51.7386 5.20547 47.549 3.31832 42.9992 2.25883C38.4856 1.20893 33.9396 0.961776 29.346 1.61701C24.4721 2.31248 19.9528 4.00421 15.708 6.4757C13.2453 7.9107 10.9409 9.57369 8.74699 11.3976C6.40823 13.3422 4.22577 15.4555 2.14434 17.6741C1.51533 18.3446 1.52867 19.3409 2.14243 20.0249C3.52434 21.5652 4.9882 23.0271 6.51116 24.4276C10.2776 27.8915 14.368 30.8803 19.0093 33.0701C23.8527 35.3539 28.9381 36.5398 34.7078 36.5456L34.7059 36.5436Z" fill="#FDFEFE"/>
<path d="M34.7057 36.5436C28.936 36.5379 23.8506 35.3519 19.0073 33.0682C14.366 30.8783 10.2755 27.8895 6.50912 24.4256C4.98616 23.0251 3.52229 21.5633 2.14039 20.0229C1.52663 19.3389 1.51329 18.3427 2.14229 17.6721C4.22373 15.4535 6.40619 13.3403 8.74494 11.3957C10.9369 9.57365 13.2414 7.90874 15.7059 6.47374C19.9508 4.00225 24.4701 2.31052 29.3439 1.61505C33.9376 0.959819 38.4836 1.20505 42.9972 2.25688C47.547 3.31636 51.7365 5.20159 55.6173 7.79762C59.7173 10.5373 63.2759 13.8806 66.461 17.6376C67.1052 18.3982 67.1243 19.3217 66.4457 20.067C64.4177 22.2913 62.2752 24.4007 59.9727 26.3377C57.2394 28.6367 54.3307 30.6772 51.159 32.3248C47.0876 34.44 42.7951 35.8232 38.2281 36.3214C36.9168 36.4651 35.6016 36.4976 34.7038 36.5417L34.7057 36.5436ZM57.0964 18.9117C57.1688 13.3211 52.6648 8.51033 46.7979 8.45669C41.0644 8.40304 36.3278 13.1276 36.3202 18.8178C36.3125 24.7245 41.0835 29.3035 46.6778 29.3418C52.436 29.3801 57.2127 24.5233 57.0964 18.9136V18.9117Z" fill="#E9E9E9"/>
<path d="M46.7371 13.5587C44.77 13.5587 42.8029 13.551 40.834 13.5606C39.5035 13.5664 38.8497 14.7274 39.515 15.8846C41.4649 19.2776 43.4167 22.6726 45.3685 26.0656C46.07 27.286 47.368 27.309 48.0752 26.0867C50.0365 22.6994 51.9864 19.3044 53.9268 15.9037C54.6244 14.6814 53.9516 13.5606 52.543 13.5587C50.6064 13.5549 48.6718 13.5587 46.7352 13.5587H46.7371Z" fill="#454845"/>
<path d="M46.7369 13.5587C48.6735 13.5587 50.6082 13.5549 52.5448 13.5587C53.9534 13.5625 54.6243 14.6833 53.9286 15.9037C51.9882 19.3044 50.0383 22.6975 48.0769 26.0867C47.3698 27.3071 46.0717 27.2841 45.3703 26.0656C43.4185 22.6726 41.4666 19.2776 39.5167 15.8846C38.8515 14.7274 39.5034 13.5683 40.8357 13.5606C42.8028 13.551 44.7699 13.5587 46.7389 13.5587H46.7369Z" fill="#3B3C3E"/>
</g>
<defs>
<clipPath id="clip0_103_97">
<rect width="69" height="41" fill="white"/>
</clipPath>
</defs>
</svg>
